<svg width="40" height="60" viewBox="0 0 40 60" fill="none" xmlns="http://www.w3.org/2000/svg">
<path d="M40 20.2532C40 31.4387 20 60 20 60C20 60 0 31.4387 0 20.2532C0 9.06765 8.9543 0 20 0C31.0457 0 40 9.06765 40 20.2532Z" fill="#6290C3"/>
<path d="M29.5945 13.598L20.4391 10.0797C20.1561 9.97344 19.8443 9.97344 19.5613 10.0797L10.4055 13.598C10.2864 13.6427 10.1837 13.7227 10.1113 13.8273C10.0388 13.9318 10 14.056 10 14.1832V15.625C10 15.9703 10.2797 16.25 10.625 16.25H29.375C29.7203 16.25 30 15.9703 30 15.625V14.1832C30 13.9227 29.8383 13.6895 29.5945 13.598ZM12.5 17.5V23.75H11.875C11.5297 23.75 11.25 24.0297 11.25 24.375V26.25H28.75V24.375C28.75 24.0297 28.4703 23.75 28.125 23.75H27.5V17.5H25V23.75H21.25V17.5H18.75V23.75H15V17.5H12.5ZM29.375 27.5H10.625C10.2797 27.5 10 27.7797 10 28.125V29.375C10 29.7203 10.2797 30 10.625 30H29.375C29.7203 30 30 29.7203 30 29.375V28.125C30 27.7797 29.7203 27.5 29.375 27.5Z" fill="white"/>
</svg>
