<svg width="40" height="60" viewBox="0 0 40 60" fill="none" xmlns="http://www.w3.org/2000/svg">
<path d="M40 20.2532C40 31.4387 20 60 20 60C20 60 0 31.4387 0 20.2532C0 9.06765 8.9543 0 20 0C31.0457 0 40 9.06765 40 20.2532Z" fill="#6290C3"/>
<path d="M15.0805 21.5761C13.6789 21.9843 12.7387 23.1854 12.8333 24.4706C13.2786 23.9737 13.9586 23.5448 14.7825 23.2628L15.0805 21.5761V21.5761ZM10.7426 23.5233L9.5032 16.5113C9.49187 16.448 9.51414 16.4089 9.51257 16.4078C11.7688 15.1554 14.3219 14.4933 16.8957 14.4933C16.9586 14.4933 17.0219 14.5 17.0852 14.5008C17.6301 13.9746 18.3246 13.609 19.1004 13.4851C19.8383 13.3672 20.5867 13.3074 21.334 13.2773C20.9437 12.7324 20.3777 12.3309 19.7023 12.2227C18.7684 12.0738 17.8297 12 16.8953 12C13.9008 12 10.9462 12.7586 8.29696 14.2289C7.35283 14.7531 6.84697 15.8468 7.04111 16.9445L8.28055 23.9565C8.83641 27.1018 13.6059 29.5064 16.2668 29.5064C16.4071 29.5064 16.5305 29.4885 16.6578 29.4752C16.1297 28.808 15.5274 27.894 15.1149 26.8354C13.2551 26.3284 10.9719 24.819 10.7426 23.5233V23.5233ZM14.5532 18.1538C14.5246 17.9929 14.4661 17.8464 14.3942 17.7085C14.0719 18.0566 13.5868 18.3238 13.0145 18.4241C12.4422 18.5249 11.8946 18.4398 11.4723 18.2222C11.452 18.3761 11.4473 18.5339 11.4758 18.6948C11.6258 19.5425 12.436 20.1085 13.286 19.9593C14.1356 19.8101 14.7032 19.0015 14.5532 18.1538V18.1538ZM30.703 16.7226C27.2273 14.7937 23.2254 14.0894 19.2977 14.7168C18.2309 14.8871 17.3805 15.7425 17.1867 16.8402L15.9473 23.8522C15.3461 27.2526 19.6691 31.5189 22.1312 31.9517C24.5933 32.3849 30.1183 29.8506 30.7194 26.4502L31.9589 19.4382C32.153 18.3402 31.6472 17.2464 30.703 16.7226V16.7226ZM20.0297 20.5038C20.1797 19.6562 20.9898 19.0902 21.8398 19.2398C22.6898 19.3894 23.257 20.1976 23.1074 21.0452C23.0789 21.2061 23.0203 21.3526 22.9484 21.4905C22.6261 21.1425 22.141 20.8753 21.5687 20.7749C20.9965 20.6741 20.4488 20.7593 20.0266 20.9768C20.0059 20.8226 20.0012 20.6647 20.0297 20.5038ZM22.7824 28.2678C20.6074 27.8854 19.1293 25.9526 19.3043 23.8577C20.109 24.8553 21.5 25.6612 23.1906 25.9584C24.8812 26.2557 26.4648 25.9729 27.5628 25.31C27.0089 27.3389 24.957 28.6502 22.7824 28.2678V28.2678ZM27.8722 22.3561C27.5499 22.0081 27.0644 21.7409 26.4921 21.6405C25.9199 21.5397 25.3722 21.6249 24.95 21.8425C24.9296 21.6886 24.925 21.5307 24.9535 21.3698C25.1035 20.5222 25.9136 19.9562 26.7636 20.1054C27.6132 20.255 28.1808 21.0632 28.0312 21.9108C28.0027 22.0721 27.9441 22.2186 27.8722 22.3561Z" fill="white"/>
</svg>
